<svg width="164" height="48" viewBox="0 0 164 48" fill="none" xmlns="http://www.w3.org/2000/svg">
    <path d="M0 11.284C0 8.91801 1.91801 7 4.284 7H29.716C32.082 7 34 8.91801 34 11.284V36.716C34 39.082 32.082 41 29.716 41H4.284C1.91801 41 0 39.082 0 36.716V11.284Z" fill="#2F80ED"/>
    <path d="M16.966 11.624C15.2625 11.624 13.6636 11.9454 12.169 12.5882C10.6584 13.231 9.34064 14.1149 8.21572 15.2398C7.10686 16.3487 6.23103 17.6584 5.58822 19.169C4.94541 20.6636 4.624 22.2625 4.624 23.966C4.624 25.6695 4.94541 27.2684 5.58822 28.763C6.23103 30.2736 7.10686 31.5914 8.21572 32.7163C9.34064 33.8251 10.6584 34.701 12.169 35.3438C13.6636 35.9866 15.2625 36.308 16.966 36.308C18.6695 36.308 20.2684 35.9866 21.763 35.3438C23.2736 34.701 24.5833 33.8251 25.6922 32.7163C26.8171 31.5914 27.701 30.2736 28.3438 28.763C28.9866 27.2684 29.308 25.6695 29.308 23.966C29.308 22.2625 28.9866 20.6636 28.3438 19.169C27.701 17.6584 26.8171 16.3487 25.6922 15.2398C24.5833 14.1149 23.2736 13.231 21.763 12.5882C20.2684 11.9454 18.6695 11.624 16.966 11.624ZM25.0413 26.4248C25.0413 26.4408 25.0413 26.4569 25.0413 26.473C25.0413 26.9069 24.969 27.3167 24.8244 27.7023C24.6798 28.072 24.4789 28.4014 24.2217 28.6907C23.9646 28.9799 23.6593 29.213 23.3057 29.3897C22.9522 29.5665 22.5745 29.6549 22.1728 29.6549C21.3693 29.6549 20.6863 29.3415 20.1238 28.7148C19.5614 28.088 19.2801 27.3327 19.2801 26.4489V21.5072C19.2801 21.4912 19.2801 21.4751 19.2801 21.459C19.2962 21.4269 19.3042 21.4028 19.3042 21.3867C19.3042 21.226 19.248 21.0894 19.1355 20.9769C19.023 20.8644 18.8864 20.8082 18.7257 20.8082C18.565 20.8082 18.4284 20.8644 18.3159 20.9769C18.2034 21.0894 18.1472 21.226 18.1472 21.3867C18.1472 21.4028 18.1472 21.4269 18.1472 21.459C18.1472 21.4751 18.1472 21.4912 18.1472 21.5072V26.4248C18.1472 26.4408 18.1472 26.4569 18.1472 26.473C18.1472 26.473 18.1472 26.481 18.1472 26.4971C18.1472 26.9149 18.0749 27.3167 17.9302 27.7023C17.7856 28.072 17.5847 28.4014 17.3276 28.6907C17.0705 28.9799 16.7651 29.213 16.4116 29.3897C16.058 29.5665 15.6804 29.6549 15.2786 29.6549C14.4751 29.6549 13.7921 29.3415 13.2297 28.7148C12.6672 28.088 12.386 27.3327 12.386 26.4489V21.5072C12.386 21.4912 12.386 21.4831 12.386 21.4831C12.386 21.4671 12.386 21.459 12.386 21.459C12.386 21.2823 12.3297 21.1376 12.2172 21.0251C12.1208 20.9126 11.9922 20.8484 11.8315 20.8323C11.6548 20.8323 11.5021 20.8966 11.3735 21.0251C11.261 21.1376 11.2048 21.2823 11.2048 21.459C11.2048 21.459 11.2048 21.4671 11.2048 21.4831C11.2048 21.4831 11.2048 21.4912 11.2048 21.5072V30.9084L8.89067 32.7404V21.5072C8.89067 21.4912 8.89067 21.4831 8.89067 21.4831C8.89067 21.4671 8.89067 21.459 8.89067 21.459C8.89067 21.0251 8.96299 20.6234 9.10762 20.2538C9.25225 19.8681 9.45313 19.5306 9.71025 19.2413C9.95131 18.9521 10.2486 18.7271 10.6022 18.5664C10.9718 18.3896 11.3575 18.2932 11.7592 18.2771C12.5627 18.2771 13.2457 18.5905 13.8082 19.2172C14.3706 19.844 14.6519 20.6073 14.6519 21.5072V26.4248C14.6519 26.4408 14.6438 26.4569 14.6278 26.473C14.6278 26.6337 14.684 26.7783 14.7965 26.9069C14.909 27.0194 15.0456 27.0836 15.2063 27.0997C15.367 27.0997 15.5036 27.0435 15.6161 26.931C15.7447 26.8024 15.8089 26.6497 15.8089 26.473C15.8089 26.4569 15.8089 26.4408 15.8089 26.4248V21.5072C15.8089 20.6234 16.0902 19.8681 16.6526 19.2413C17.2151 18.5985 17.89 18.2771 18.6775 18.2771C19.4649 18.2771 20.1399 18.5905 20.7023 19.2172C21.2809 19.844 21.5701 20.6073 21.5701 21.5072V26.4248C21.5701 26.5855 21.6264 26.7301 21.7389 26.8587C21.8514 26.9711 21.988 27.0274 22.1487 27.0274C22.3094 27.0274 22.446 26.9711 22.5585 26.8587C22.671 26.7301 22.7272 26.5855 22.7272 26.4248V17.0236L25.0413 15.2157V26.4248Z" fill="white"/>
    <path d="M50.9375 26.0234C50.9375 25.8203 50.9062 25.638 50.8438 25.4766C50.7865 25.3099 50.6771 25.1589 50.5156 25.0234C50.3542 24.8828 50.1276 24.7448 49.8359 24.6094C49.5443 24.474 49.1667 24.3333 48.7031 24.1875C48.1875 24.0208 47.6979 23.8333 47.2344 23.625C46.776 23.4167 46.3698 23.1745 46.0156 22.8984C45.6667 22.6172 45.3906 22.2917 45.1875 21.9219C44.9896 21.5521 44.8906 21.1224 44.8906 20.6328C44.8906 20.1589 44.9948 19.7292 45.2031 19.3438C45.4115 18.9531 45.7031 18.6198 46.0781 18.3438C46.4531 18.0625 46.8958 17.8464 47.4062 17.6953C47.9219 17.5443 48.487 17.4688 49.1016 17.4688C49.9401 17.4688 50.6719 17.6198 51.2969 17.9219C51.9219 18.224 52.4062 18.638 52.75 19.1641C53.099 19.6901 53.2734 20.2917 53.2734 20.9688H50.9453C50.9453 20.6354 50.875 20.3438 50.7344 20.0938C50.599 19.8385 50.3906 19.638 50.1094 19.4922C49.8333 19.3464 49.4844 19.2734 49.0625 19.2734C48.6562 19.2734 48.3177 19.3359 48.0469 19.4609C47.776 19.5807 47.5729 19.7448 47.4375 19.9531C47.3021 20.1562 47.2344 20.3854 47.2344 20.6406C47.2344 20.8333 47.2812 21.0078 47.375 21.1641C47.474 21.3203 47.6198 21.4661 47.8125 21.6016C48.0052 21.737 48.2422 21.8646 48.5234 21.9844C48.8047 22.1042 49.1302 22.2214 49.5 22.3359C50.1198 22.5234 50.6641 22.7344 51.1328 22.9688C51.6068 23.2031 52.0026 23.4661 52.3203 23.7578C52.638 24.0495 52.8776 24.3802 53.0391 24.75C53.2005 25.1198 53.2812 25.5391 53.2812 26.0078C53.2812 26.5026 53.1849 26.9453 52.9922 27.3359C52.7995 27.7266 52.5208 28.0573 52.1562 28.3281C51.7917 28.599 51.3568 28.8047 50.8516 28.9453C50.3464 29.0859 49.7812 29.1562 49.1562 29.1562C48.5938 29.1562 48.0391 29.0833 47.4922 28.9375C46.9453 28.7865 46.4479 28.5599 46 28.2578C45.5573 27.9557 45.2031 27.5703 44.9375 27.1016C44.6719 26.6328 44.5391 26.0781 44.5391 25.4375H46.8906C46.8906 25.7917 46.9453 26.0911 47.0547 26.3359C47.1641 26.5807 47.3177 26.7786 47.5156 26.9297C47.7188 27.0807 47.9583 27.1901 48.2344 27.2578C48.5156 27.3255 48.8229 27.3594 49.1562 27.3594C49.5625 27.3594 49.8958 27.3021 50.1562 27.1875C50.4219 27.0729 50.6172 26.9141 50.7422 26.7109C50.8724 26.5078 50.9375 26.2786 50.9375 26.0234ZM60.9062 17.625H63.2422V25.1406C63.2422 26.0156 63.0547 26.7526 62.6797 27.3516C62.3099 27.9505 61.7969 28.401 61.1406 28.7031C60.4896 29.0052 59.7396 29.1562 58.8906 29.1562C58.0417 29.1562 57.2865 29.0052 56.625 28.7031C55.9688 28.401 55.4531 27.9505 55.0781 27.3516C54.7083 26.7526 54.5234 26.0156 54.5234 25.1406V17.625H56.8672V25.1406C56.8672 25.651 56.9479 26.0677 57.1094 26.3906C57.2708 26.7135 57.5026 26.9505 57.8047 27.1016C58.112 27.2526 58.474 27.3281 58.8906 27.3281C59.3177 27.3281 59.6797 27.2526 59.9766 27.1016C60.2786 26.9505 60.5078 26.7135 60.6641 26.3906C60.8255 26.0677 60.9062 25.651 60.9062 25.1406V17.625ZM67.4141 17.625V29H65.0781V17.625H67.4141ZM73.0938 17.625H77.3359C78.2057 17.625 78.9531 17.7552 79.5781 18.0156C80.2083 18.276 80.6927 18.6615 81.0312 19.1719C81.3698 19.6823 81.5391 20.3099 81.5391 21.0547C81.5391 21.6641 81.4349 22.1875 81.2266 22.625C81.0234 23.0573 80.7344 23.4193 80.3594 23.7109C79.9896 23.9974 79.5547 24.2266 79.0547 24.3984L78.3125 24.7891H74.625L74.6094 22.9609H77.3516C77.763 22.9609 78.1042 22.888 78.375 22.7422C78.6458 22.5964 78.849 22.3932 78.9844 22.1328C79.125 21.8724 79.1953 21.5703 79.1953 21.2266C79.1953 20.862 79.1276 20.5469 78.9922 20.2812C78.8568 20.0156 78.651 19.8125 78.375 19.6719C78.099 19.5312 77.7526 19.4609 77.3359 19.4609H75.4375V29H73.0938V17.625ZM79.4531 29L76.8594 23.9297L79.3359 23.9141L81.9609 28.8906V29H79.4531ZM86.8438 29.1562C86.1875 29.1562 85.599 29.0521 85.0781 28.8438C84.5573 28.6302 84.1146 28.3359 83.75 27.9609C83.3906 27.5859 83.1146 27.151 82.9219 26.6562C82.7292 26.1562 82.6328 25.625 82.6328 25.0625V24.75C82.6328 24.1094 82.724 23.5234 82.9062 22.9922C83.0885 22.4609 83.349 22 83.6875 21.6094C84.0312 21.2188 84.4479 20.9193 84.9375 20.7109C85.4271 20.4974 85.9792 20.3906 86.5938 20.3906C87.1927 20.3906 87.724 20.4896 88.1875 20.6875C88.651 20.8854 89.0391 21.1667 89.3516 21.5312C89.6693 21.8958 89.9089 22.3333 90.0703 22.8438C90.2318 23.349 90.3125 23.9115 90.3125 24.5312V25.4688H83.5938V23.9688H88.1016V23.7969C88.1016 23.4844 88.0443 23.2057 87.9297 22.9609C87.8203 22.7109 87.6536 22.513 87.4297 22.3672C87.2057 22.2214 86.9193 22.1484 86.5703 22.1484C86.2734 22.1484 86.0182 22.2135 85.8047 22.3438C85.5911 22.474 85.4167 22.6562 85.2812 22.8906C85.151 23.125 85.0521 23.401 84.9844 23.7188C84.9219 24.0312 84.8906 24.375 84.8906 24.75V25.0625C84.8906 25.401 84.9375 25.7135 85.0312 26C85.1302 26.2865 85.2682 26.5339 85.4453 26.7422C85.6276 26.9505 85.8464 27.112 86.1016 27.2266C86.362 27.3411 86.6562 27.3984 86.9844 27.3984C87.3906 27.3984 87.7682 27.3203 88.1172 27.1641C88.4714 27.0026 88.776 26.7604 89.0312 26.4375L90.125 27.625C89.9479 27.8802 89.7057 28.125 89.3984 28.3594C89.0964 28.5938 88.7318 28.7865 88.3047 28.9375C87.8776 29.0833 87.3906 29.1562 86.8438 29.1562ZM95.9062 27.0938V23.3281C95.9062 23.0573 95.862 22.8255 95.7734 22.6328C95.6849 22.4349 95.5469 22.2812 95.3594 22.1719C95.1771 22.0625 94.9401 22.0078 94.6484 22.0078C94.3984 22.0078 94.1823 22.0521 94 22.1406C93.8177 22.224 93.6771 22.3464 93.5781 22.5078C93.4792 22.6641 93.4297 22.849 93.4297 23.0625H91.1797C91.1797 22.7031 91.263 22.362 91.4297 22.0391C91.5964 21.7161 91.8385 21.4323 92.1562 21.1875C92.474 20.9375 92.8516 20.7422 93.2891 20.6016C93.7318 20.4609 94.2266 20.3906 94.7734 20.3906C95.4297 20.3906 96.013 20.5 96.5234 20.7188C97.0339 20.9375 97.4349 21.2656 97.7266 21.7031C98.0234 22.1406 98.1719 22.6875 98.1719 23.3438V26.9609C98.1719 27.4245 98.2005 27.8047 98.2578 28.1016C98.3151 28.3932 98.3984 28.6484 98.5078 28.8672V29H96.2344C96.125 28.7708 96.0417 28.4844 95.9844 28.1406C95.9323 27.7917 95.9062 27.4427 95.9062 27.0938ZM96.2031 23.8516L96.2188 25.125H94.9609C94.6641 25.125 94.4062 25.1589 94.1875 25.2266C93.9688 25.2943 93.7891 25.3906 93.6484 25.5156C93.5078 25.6354 93.4036 25.776 93.3359 25.9375C93.2734 26.099 93.2422 26.276 93.2422 26.4688C93.2422 26.6615 93.2865 26.8359 93.375 26.9922C93.4635 27.1432 93.5911 27.263 93.7578 27.3516C93.9245 27.4349 94.1198 27.4766 94.3438 27.4766C94.6823 27.4766 94.9766 27.4089 95.2266 27.2734C95.4766 27.138 95.6693 26.9714 95.8047 26.7734C95.9453 26.5755 96.0182 26.388 96.0234 26.2109L96.6172 27.1641C96.5339 27.3776 96.4193 27.599 96.2734 27.8281C96.1328 28.0573 95.9531 28.2734 95.7344 28.4766C95.5156 28.6745 95.2526 28.8385 94.9453 28.9688C94.638 29.0938 94.2734 29.1562 93.8516 29.1562C93.3151 29.1562 92.8281 29.0495 92.3906 28.8359C91.9583 28.6172 91.6146 28.3177 91.3594 27.9375C91.1094 27.5521 90.9844 27.1146 90.9844 26.625C90.9844 26.1823 91.0677 25.7891 91.2344 25.4453C91.401 25.1016 91.6458 24.8125 91.9688 24.5781C92.2969 24.3385 92.7057 24.1589 93.1953 24.0391C93.6849 23.9141 94.2526 23.8516 94.8984 23.8516H96.2031ZM103.148 27.3984C103.424 27.3984 103.669 27.3464 103.883 27.2422C104.096 27.1328 104.263 26.9818 104.383 26.7891C104.508 26.5911 104.573 26.3594 104.578 26.0938H106.695C106.69 26.6875 106.531 27.2161 106.219 27.6797C105.906 28.138 105.487 28.5 104.961 28.7656C104.435 29.026 103.846 29.1562 103.195 29.1562C102.539 29.1562 101.966 29.0469 101.477 28.8281C100.992 28.6094 100.589 28.3073 100.266 27.9219C99.9427 27.5312 99.7005 27.0781 99.5391 26.5625C99.3776 26.0417 99.2969 25.4844 99.2969 24.8906V24.6641C99.2969 24.0651 99.3776 23.5078 99.5391 22.9922C99.7005 22.4714 99.9427 22.0182 100.266 21.6328C100.589 21.2422 100.992 20.9375 101.477 20.7188C101.961 20.5 102.529 20.3906 103.18 20.3906C103.872 20.3906 104.479 20.5234 105 20.7891C105.526 21.0547 105.938 21.4349 106.234 21.9297C106.536 22.4193 106.69 23 106.695 23.6719H104.578C104.573 23.3906 104.513 23.1354 104.398 22.9062C104.289 22.6771 104.128 22.4948 103.914 22.3594C103.706 22.2188 103.448 22.1484 103.141 22.1484C102.812 22.1484 102.544 22.2188 102.336 22.3594C102.128 22.4948 101.966 22.6823 101.852 22.9219C101.737 23.1562 101.656 23.4245 101.609 23.7266C101.568 24.0234 101.547 24.3359 101.547 24.6641V24.8906C101.547 25.2188 101.568 25.5339 101.609 25.8359C101.651 26.138 101.729 26.4062 101.844 26.6406C101.964 26.875 102.128 27.0599 102.336 27.1953C102.544 27.3307 102.815 27.3984 103.148 27.3984ZM111.891 20.5469V22.1406H106.969V20.5469H111.891ZM108.188 18.4609H110.438V26.4531C110.438 26.6979 110.469 26.8854 110.531 27.0156C110.599 27.1458 110.698 27.237 110.828 27.2891C110.958 27.3359 111.122 27.3594 111.32 27.3594C111.461 27.3594 111.586 27.3542 111.695 27.3438C111.81 27.3281 111.906 27.3125 111.984 27.2969L111.992 28.9531C111.799 29.0156 111.591 29.0651 111.367 29.1016C111.143 29.138 110.896 29.1562 110.625 29.1562C110.13 29.1562 109.698 29.0755 109.328 28.9141C108.964 28.7474 108.682 28.4818 108.484 28.1172C108.286 27.7526 108.188 27.2734 108.188 26.6797V18.4609Z" fill="white"/>
</svg>
